 <svg width="200" height="150" viewBox="0 0 800 600" fill="none" xmlns="http://www.w3.org/2000/svg" dataReactroot="">
<path d="M561.173 417.883H550.395V579.198H561.173V417.883Z" fill="#2249B3"></path>
<path d="M576.604 405.742H533.263V435.922H576.604V405.742Z" fill="#2249B3"></path>
<path d="M405.281 509.52C405.281 509.52 420.358 538.114 415.575 546.536C410.792 555.063 403.097 581.473 403.097 581.473L362.441 559.014L382.301 511.183L405.281 509.52Z" fill="#B5CDFB"></path>
<path d="M462.991 509.832C462.991 509.832 437.204 529.276 437.932 538.946C438.66 548.72 434.396 575.859 434.396 575.859L480.771 572.844L483.163 521.062L462.991 509.832Z" fill="#B5CDFB"></path>
<path d="M632.147 419.019H435.726C412.597 419.019 393.737 401.221 393.737 379.142V371.707H674.135V379.142C674.135 401.108 655.276 419.019 632.147 419.019Z" fill="#2249B3"></path>
<path d="M388.852 589.999H350.692C342.477 589.999 335.927 583.345 335.927 575.234V573.363C335.927 565.148 342.581 558.598 350.692 558.598H388.852C397.067 558.598 403.617 565.252 403.617 573.363V575.234C403.617 583.345 396.963 589.999 388.852 589.999Z" fill="#B5CDFB"></path>
<path fillRule="evenodd" clipRule="evenodd" d="M363.897 349.634C363.897 329.884 380.403 314.141 400.131 315.075H493.904C511.113 315.889 512.744 334.386 511.929 351.595C511.115 368.804 496.504 382.094 479.296 381.279L426.285 378.77V502.97C426.285 520.198 412.319 534.164 395.091 534.164C377.863 534.164 363.897 520.198 363.897 502.97V349.634Z" fill="#75E0E6"></path>
<path d="M495.925 345.724L477.37 128.791C474.734 98.2707 493.922 72.5156 520.384 72.5156H644.894C671.357 72.5156 690.544 98.3842 687.909 128.791L669.353 345.724C667.667 365.465 665.187 374.568 631.678 374.568L535.461 380.896C515.218 380.896 497.612 365.465 495.925 345.724Z" fill="#2249B3"></path>
<path d="M610.642 220.145H493.249C483.683 220.145 475.885 211.723 475.885 201.325V167.739C475.885 157.341 536.817 134.05 546.383 134.05L565.307 130.723C574.873 130.723 628.111 157.341 628.111 167.739V201.325C628.111 211.723 620.312 220.145 610.642 220.145Z" fill="#75E0E6"></path>
<path d="M590.244 371.704L469.214 366.345L484.986 302.5H634.695V318.877C634.695 359.686 618.892 371.704 590.244 371.704Z" fill="#75E0E6"></path>
<path d="M615.945 184.48H484.987V320.486H615.945V184.48Z" fill="#75E0E6"></path>
<path d="M590.573 143.306L523.818 150.584C534.528 135.195 540.143 128.645 531.409 104.106L576.432 98.3867C569.777 119.079 578.408 127.501 590.573 143.306Z" fill="#75E0E6"></path>
<path d="M555.011 115.439L521.229 120.665C511.363 117.787 508.136 87.125 505.933 61.7858C505.933 45.0451 522.985 37.5586 539.726 37.5586H551.372C568.112 37.5586 581.63 51.0759 581.63 67.8166V82.4777C581.63 92.1478 578.822 101.61 573.727 109.824C565.097 123.55 568.528 115.439 555.011 115.439Z" fill="#75E0E6"></path>
<path fillRule="evenodd" clipRule="evenodd" d="M617.819 333.612C621.998 350.326 611.836 367.262 595.123 371.44L551.728 382.289L505.198 510.202C499.308 526.392 481.409 534.742 465.219 528.853C449.029 522.964 440.679 505.065 446.568 488.875L504.433 329.805L579.991 310.915C596.705 306.737 613.641 316.899 617.819 333.612Z" fill="#75E0E6"></path>
<path fillRule="evenodd" clipRule="evenodd" d="M501.022 156.302C514.402 159.619 522.561 173.155 519.244 186.535L499.798 264.98C498.792 283.643 484.115 304.112 459.813 301.84L392.603 299.055C378.829 298.484 368.126 286.855 368.697 273.082C369.267 259.308 380.896 248.605 394.67 249.176L451.697 251.539L470.789 174.523C474.105 161.143 487.641 152.985 501.022 156.302Z" fill="#75E0E6"></path>
<path d="M576.604 553.852H533.263V584.032H576.604V553.852Z" fill="#2249B3"></path>
<path d="M628.681 573.934H476.646V584.031H628.681V573.934Z" fill="#2249B3"></path>
<g filter="url(#filter0_d)">
<path d="M126.822 74.8746C126.313 70.5393 129.7 66.7305 134.066 66.7305H463.89C467.589 66.7305 470.702 69.4991 471.134 73.1724L491.337 245.112C491.846 249.447 488.459 253.256 484.094 253.256H154.269C150.57 253.256 147.457 250.487 147.026 246.814L126.822 74.8746Z" fill="#2249B3"></path>
</g>
<g filter="url(#filter1_i)">
<path d="M134.177 78.8689C133.644 74.5213 137.036 70.6875 141.416 70.6875H456.617C460.302 70.6875 463.407 73.436 463.856 77.0929C471.599 140.19 476.296 178.473 483.982 241.103C484.515 245.45 481.125 249.3 476.745 249.3H161.544C157.859 249.3 154.754 246.553 154.305 242.896L134.177 78.8689Z" fill="#F2F4FF"></path>
</g>
<path d="M283.38 128.916C282.846 124.568 286.238 120.734 290.618 120.734L442.824 120.734C446.508 120.734 449.618 123.513 450.067 127.17C456.35 178.376 454.844 166.105 460.945 215.82C461.478 220.167 458.093 224.055 453.713 224.055H301.507C297.823 224.055 294.717 221.307 294.268 217.65L283.38 128.916Z" fill="black" fill-opacity="0.21"></path>
<path d="M153.097 91.2275C152.353 86.7806 155.781 82.7305 160.29 82.7305L443.102 82.7305C446.665 82.7305 449.707 85.3053 450.295 88.8196L452.403 101.413C453.147 105.86 449.719 109.91 445.21 109.91H162.398C158.835 109.91 155.793 107.335 155.205 103.821L153.097 91.2275Z" fill="black" fill-opacity="0.21"></path>
<path d="M126.822 74.8746C126.313 70.5393 129.7 66.7305 134.066 66.7305H463.89C467.589 66.7305 470.702 69.4991 471.134 73.1724L491.337 245.112C491.846 249.447 488.459 253.256 484.094 253.256H154.269C150.57 253.256 147.457 250.487 147.026 246.814L126.822 74.8746Z" fill="#2249B3"></path>
<path opacity="0.13" d="M134.207 81.1612C133.658 76.8062 137.053 72.957 141.443 72.957H456.617C460.302 72.957 463.407 75.7055 463.858 79.3622C471.599 142.19 476.296 176.544 483.979 238.832C484.515 243.179 481.125 247.032 476.745 247.032H161.523C157.848 247.032 154.747 244.296 154.287 240.65L134.207 81.1612Z" fill="black"></path>
<path d="M153.099 91.2275C152.355 86.7806 155.783 82.7305 160.292 82.7305L443.104 82.7305C446.667 82.7305 449.709 85.3053 450.297 88.8196L452.405 101.413C453.149 105.86 449.721 109.91 445.212 109.91H162.4C158.837 109.91 155.795 107.335 155.207 103.821L153.099 91.2275Z" fill="white" fill-opacity="0.21"></path>
<path opacity="0.95" d="M301.865 151.713C301.865 148.536 304.441 145.961 307.618 145.961H436.712C439.889 145.961 442.464 148.536 442.464 151.713V158.296C442.464 161.473 439.889 164.049 436.712 164.049H307.618C304.441 164.049 301.865 161.473 301.865 158.296V151.713Z" fill="#75E0E6"></path>
<path opacity="0.95" d="M301.865 181.565C301.865 178.388 304.441 175.812 307.618 175.812H436.712C439.889 175.812 442.464 178.388 442.464 181.565V188.148C442.464 191.325 439.889 193.9 436.712 193.9H307.618C304.441 193.9 301.865 191.325 301.865 188.148V181.565Z" fill="#75E0E6"></path>
<path opacity="0.93" fillRule="evenodd" clipRule="evenodd" d="M330.706 148.578L383.088 170.849L360.944 178.221L354.428 202.721L330.706 148.578ZM341.637 159.39L353.115 185.588L356.249 173.806L367.07 170.203L341.637 159.39Z" fill="#2249B3"></path>
<path d="M353.821 193.657L336.651 154.469L374.608 170.606L358.528 175.96L353.821 193.657Z" fill="#333333"></path>
<path d="M283.38 128.916C282.846 124.568 286.238 120.734 290.618 120.734L442.824 120.734C446.508 120.734 449.618 123.513 450.067 127.17C456.35 178.376 454.844 166.105 460.945 215.82C461.478 220.167 458.093 224.055 453.713 224.055H301.507C297.823 224.055 294.717 221.307 294.268 217.65L283.38 128.916Z" fill="white" fill-opacity="0.21"></path>
<path d="M152.68 128.916C152.147 124.568 155.539 120.734 159.919 120.734L261.894 120.734C265.579 120.734 268.688 123.513 269.137 127.17C275.42 178.376 273.915 166.105 280.015 215.82C280.549 220.167 277.163 224.055 272.783 224.055H170.808C167.123 224.055 164.018 221.307 163.569 217.65L152.68 128.916Z" fill="white" fill-opacity="0.21"></path>
<path fillRule="evenodd" clipRule="evenodd" d="M597.334 158.679C609.4 152.018 624.581 156.4 631.241 168.466L674.031 245.983L674.815 248.803C680.484 269.221 668.571 294.99 642.887 297.701L641.581 297.839H560.939C547.157 297.839 535.984 286.667 535.984 272.884C535.984 259.102 547.157 247.929 560.939 247.929H618.096L587.546 192.586C580.886 180.52 585.268 165.339 597.334 158.679Z" fill="#75E0E6"></path>
<path d="M478.9 588.546H447.082C440.115 588.546 434.396 582.827 434.396 575.861V569.83C434.396 562.863 440.115 557.145 447.082 557.145H478.9C485.866 557.145 491.585 562.863 491.585 569.83V575.861C491.585 582.827 485.866 588.546 478.9 588.546Z" fill="#B5CDFB"></path>
<path d="M581.528 61.7845H505.727V53.0502C505.831 32.0463 522.779 15.0977 543.679 15.0977C564.579 15.0977 581.528 32.0463 581.528 52.9462V61.7845Z" fill="#75E0E6"></path>
<path d="M510.405 64.9023L497.824 87.2579C496.368 89.7534 498.24 92.8728 501.047 92.8728H531.409L510.405 64.9023Z" fill="#75E0E6"></path>
<path d="M521.946 19.9863C512.9 18.9465 507.077 24.6654 503.438 31.424C497.199 42.8618 510.093 55.6512 521.218 48.9966C521.53 48.7886 521.738 48.6846 522.05 48.4767C530.784 42.4459 543.678 36.2071 543.678 36.2071L548.357 112.632L598.579 75.9273C598.579 75.9273 597.851 42.9657 590.677 34.9593C583.398 26.8489 581.63 15.2032 557.923 16.7629C539.207 18.0107 542.95 22.3778 521.946 19.9863Z" fill="#75E0E6"></path>
<path d="M572.481 102.022C586.895 102.022 598.58 90.3371 598.58 75.9231C598.58 61.5091 586.895 49.8242 572.481 49.8242C558.067 49.8242 546.382 61.5091 546.382 75.9231C546.382 90.3371 558.067 102.022 572.481 102.022Z" fill="#B5CDFB"></path>
<path d="M572.481 66.9826C571.857 66.9826 571.233 66.8786 570.609 66.6707C568.218 65.7349 566.97 63.1354 567.386 60.5359C569.361 50.1379 565.826 37.0365 558.755 28.5102C555.636 24.7669 550.541 20.3998 543.886 20.3998C543.782 20.3998 543.782 20.3998 543.678 20.3998C530.473 20.5038 526.418 20.1918 523.818 20.8157C526.626 15.2008 538.999 10.1058 543.574 10.0019C552.101 9.89788 560.315 14.161 566.762 21.8555C575.912 32.8773 580.175 49.3061 577.472 62.8234C577.056 65.215 574.872 66.9826 572.481 66.9826Z" fill="#B5CDFB"></path>
<path d="M573.208 93.3981C582.855 93.3981 590.676 85.5771 590.676 75.9295C590.676 66.2819 582.855 58.4609 573.208 58.4609C563.56 58.4609 555.739 66.2819 555.739 75.9295C555.739 85.5771 563.56 93.3981 573.208 93.3981Z" fill="#2249B3"></path>
<path d="M251.556 286.13C251.556 278.868 257.456 273.082 264.603 273.082H327.232C334.494 273.082 340.28 278.982 340.28 286.13H251.556Z" fill="#2249B3"></path>
<path d="M93.6113 293.402H706.388V311.599H93.6113V293.402Z" fill="#2249B3"></path>
<path opacity="0.75" d="M158.383 320.589C158.383 319.919 158.926 319.375 159.597 319.375H375.475C376.145 319.375 376.689 319.919 376.689 320.589V374.428C376.689 375.098 376.145 375.642 375.475 375.642H159.597C158.926 375.642 158.383 375.098 158.383 374.428V320.589Z" fill="#2249B3"></path>
<path opacity="0.75" d="M394.365 320.589C394.365 319.919 394.909 319.375 395.579 319.375H611.457C612.128 319.375 612.671 319.919 612.671 320.589V374.428C612.671 375.098 612.128 375.642 611.457 375.642H395.579C394.909 375.642 394.365 375.098 394.365 374.428V320.589Z" fill="#2249B3"></path>
<path d="M196.423 151.852L186.026 169.254H260.909L250.45 151.852H196.423Z" fill="#2249B3"></path>
<path d="M223.468 211.984L186.026 169.254H260.909L223.468 211.984Z" fill="#B5CDFB"></path>
<defs>
<filter id="filter0_d" x="106.771" y="56.7305" width="404.616" height="226.526" filterUnits="userSpaceOnUse" color-interpolation-filters="sRGB">
<feFlood flood-opacity="0" result="BackgroundImageFix"></feFlood>
<feColorMatrix in="SourceAlpha" type="matrix" values="0 0 0 0 0 0 0 0 0 0 0 0 0 0 0 0 0 0 127 0"></feColorMatrix>
<feOffset dy="10"></feOffset>
<fegaussianblur stdDeviation="10"></fegaussianblur>
<feColorMatrix type="matrix" values="0 0 0 0 0 0 0 0 0 0 0 0 0 0 0 0 0 0 0.15 0"></feColorMatrix>
<feBlend mode="normal" in2="BackgroundImageFix" result="effect1_dropShadow"></feBlend>
<feBlend mode="normal" in="SourceGraphic" in2="effect1_dropShadow" result="shape"></feBlend>
</filter>
<filter id="filter1_i" x="134.122" y="70.6875" width="349.915" height="182.613" filterUnits="userSpaceOnUse" color-interpolation-filters="sRGB">
<feFlood flood-opacity="0" result="BackgroundImageFix"></feFlood>
<feBlend mode="normal" in="SourceGraphic" in2="BackgroundImageFix" result="shape"></feBlend>
<feColorMatrix in="SourceAlpha" type="matrix" values="0 0 0 0 0 0 0 0 0 0 0 0 0 0 0 0 0 0 127 0" result="hardAlpha"></feColorMatrix>
<feOffset dy="4"></feOffset>
<fegaussianblur stdDeviation="2"></fegaussianblur>
<feComposite in2="hardAlpha" operator="arithmetic" k2="-1" k3="1"></feComposite>
<feColorMatrix type="matrix" values="0 0 0 0 0 0 0 0 0 0 0 0 0 0 0 0 0 0 0.25 0"></feColorMatrix>
<feBlend mode="normal" in2="shape" result="effect1_innerShadow"></feBlend>
</filter>
</defs>
</svg>
