<svg
	width="56"
	height="56"
	viewBox="0 0 24 24"
	fill="none"
	xmlns="http://www.w3.org/2000/svg"
	data-reactroot=""
>
	<path
		stroke-width="1"
		stroke="#e77a15"
		fill="none"
		d="M13.25 22H10.75L9.5 20.75V19.0732C10.2819 19.3496 11.1234 19.5 12 19.5C12.8766 19.5 13.7181 19.3496 14.5 19.0732V20.75L13.25 22Z"
	/>
	<path
		stroke-width="1"
		stroke="#e77a15"
		fill="none"
		d="M13.25 2H10.75L9.5 3.25V4.92676C10.2819 4.65039 11.1234 4.5 12 4.5C12.8766 4.5 13.7181 4.65039 14.5 4.92676V3.25L13.25 2Z"
	/>
	<path
		stroke-width="1"
		stroke="#e77a15"
		fill="none"
		d="M19.9549 18.1872L18.1872 19.955H16.4194L15.2337 18.7693C15.9821 18.4118 16.6834 17.9231 17.3033 17.3033C17.9231 16.6835 18.4118 15.9821 18.7693 15.2338L19.9549 16.4194V18.1872Z"
	/>
	<path
		stroke-width="1"
		stroke="#e77a15"
		fill="none"
		d="M5.81284 4.04505L4.04508 5.81282V7.58058L5.23073 8.76624C5.58822 8.01789 6.07689 7.31654 6.69673 6.6967C7.31657 6.07686 8.01791 5.58819 8.76626 5.2307L7.58061 4.04505H5.81284Z"
	/>
	<path
		stroke-width="1"
		stroke="#e77a15"
		fill="none"
		d="M22 10.75V13.25L20.75 14.5H19.0732C19.3496 13.7181 19.5 12.8766 19.5 12C19.5 11.1234 19.3496 10.2819 19.0732 9.5H20.75L22 10.75Z"
	/>
	<path
		stroke-width="1"
		stroke="#e77a15"
		fill="none"
		d="M2 10.75L2 13.25L3.25 14.5H4.92676C4.65039 13.7181 4.5 12.8766 4.5 12C4.5 11.1234 4.65039 10.2819 4.92676 9.5H3.25L2 10.75Z"
	/>
	<path
		stroke-width="1"
		stroke="#e77a15"
		fill="none"
		d="M5.81284 19.9549L4.04508 18.1872V16.4194L5.23073 15.2338C5.58822 15.9821 6.07689 16.6835 6.69673 17.3033C7.31657 17.9231 8.01791 18.4118 8.76626 18.7693L7.58061 19.9549H5.81284Z"
	/>
	<path
		stroke-width="1"
		stroke="#e77a15"
		fill="none"
		d="M19.9549 5.81281L18.1872 4.04505H16.4194L15.2337 5.2307C15.9821 5.58819 16.6834 6.07686 17.3033 6.6967C17.9231 7.31654 18.4118 8.01788 18.7693 8.76623L19.9549 7.58058V5.81281Z"
	/>
	<path
		stroke-width="1"
		stroke="#e77a15"
		fill="none"
		d="M12 19.5C16.1421 19.5 19.5 16.1421 19.5 12C19.5 7.85786 16.1421 4.5 12 4.5C7.85786 4.5 4.5 7.85786 4.5 12C4.5 16.1421 7.85786 19.5 12 19.5Z"
		clip-rule="evenodd"
		fill-rule="evenodd"
	/>
</svg>
