<svg width="200" height="150" viewBox="0 0 800 600" fill="none" xmlns="http://www.w3.org/2000/svg" data-reactroot="">
<path d="M544.845 51.4313L544.768 241.633L544.719 358.377L544.642 548.569C544.642 571.45 527.658 590 506.7 590H99.4534C78.4961 590 61.5117 571.45 61.5117 548.569L61.5891 358.377L61.6471 241.633L61.7244 51.4313C61.7244 28.5503 78.7087 10 99.6564 10H506.903C527.861 10 544.845 28.5503 544.845 51.4313Z" fill="#2249B3"></path>
<path opacity="0.5" d="M544.765 254.567L544.716 345.434H61.5859L61.6439 254.567H544.765Z" fill="black"></path>
<path fill-rule="evenodd" clip-rule="evenodd" d="M45.2149 68.0015H616.786C619.115 68.0015 621 69.8961 621 72.2161V141.12C621 143.45 619.115 145.335 616.786 145.335H45.2149C42.8852 145.335 41.0002 143.45 41.0002 141.12V72.2161C41.0002 69.8961 42.8852 68.0015 45.2149 68.0015ZM616.786 141.468C616.979 141.468 617.134 141.313 617.134 141.12V72.2161C617.134 72.0228 616.979 71.8681 616.786 71.8681H45.2149C45.0216 71.8681 44.8669 72.0325 44.8669 72.2161V141.12C44.8669 141.313 45.0216 141.468 45.2149 141.468H616.786ZM45.2147 164.666H616.785C619.115 164.666 621 166.561 621 168.881V237.785C621 240.114 619.115 241.999 616.785 241.999H45.2147C42.885 241.999 41 240.114 41 237.785V168.881C41 166.561 42.885 164.666 45.2147 164.666ZM616.785 238.133C616.979 238.133 617.133 237.978 617.133 237.785V168.881C617.133 168.687 616.979 168.533 616.785 168.533H45.2147C45.0213 168.533 44.8667 168.687 44.8667 168.881V237.785C44.8667 237.978 45.0213 238.133 45.2147 238.133H616.785ZM616.785 358.002H45.2147C42.885 358.002 41 359.897 41 362.217V431.121C41 433.45 42.885 435.335 45.2147 435.335H616.785C619.115 435.335 621 433.45 621 431.121V362.217C621 359.897 619.115 358.002 616.785 358.002ZM617.133 431.121C617.133 431.314 616.979 431.469 616.785 431.469H45.2147C45.0213 431.469 44.8667 431.314 44.8667 431.121V362.217C44.8667 362.023 45.0213 361.869 45.2147 361.869H616.785C616.979 361.869 617.133 362.023 617.133 362.217V431.121ZM45.2147 454.667H616.785C619.115 454.667 621 456.562 621 458.882V527.786C621 530.115 619.115 532 616.785 532H45.2147C42.885 532 41 530.115 41 527.786V458.882C41 456.562 42.885 454.667 45.2147 454.667ZM616.785 528.134C616.979 528.134 617.133 527.979 617.133 527.786V458.882C617.133 458.688 616.979 458.534 616.785 458.534H45.2147C45.0213 458.534 44.8667 458.688 44.8667 458.882V527.786C44.8667 527.979 45.0213 528.134 45.2147 528.134H616.785Z" fill="#B5CDFB"></path>
<path d="M754.676 338.668H87.1155C84.6022 338.668 82.5625 336.629 82.5625 334.115V265.888C82.5625 263.375 84.6022 261.335 87.1155 261.335H754.676C757.189 261.335 759.229 263.375 759.229 265.888V334.115C759.229 336.629 757.189 338.668 754.676 338.668Z" fill="#75E0E6"></path>
</svg>
